<?xml version="1.0" standalone="no"?>
<!DOCTYPE svg PUBLIC "-//W3C//DTD SVG 20010904//EN"
 "http://www.w3.org/TR/2001/REC-SVG-20010904/DTD/svg10.dtd">
<svg version="1.0" xmlns="http://www.w3.org/2000/svg"
 width="576.000000pt" height="292.000000pt" viewBox="0 0 576.000000 292.000000"
 preserveAspectRatio="xMidYMid meet">

<g transform="translate(0.000000,292.000000) scale(0.100000,-0.100000)"
fill="#000000" stroke="none">
<path d="M1170 2883 c-29 -16 -64 -44 -79 -62 -14 -19 -20 -32 -14 -27 8 4 25
-7 45 -29 18 -20 60 -65 94 -100 45 -48 58 -68 50 -77 -6 -6 0 -4 14 5 78 53
124 62 202 42 57 -15 74 -25 60 -34 -6 -4 8 -25 34 -50 l45 -43 -22 36 c-11
20 -25 36 -31 36 -5 0 -7 4 -4 9 6 8 -121 209 -157 250 -29 31 -114 71 -153
71 -18 0 -55 -12 -84 -27z"/>
<path d="M611 1868 c-195 -392 -409 -827 -477 -966 l-123 -252 464 2 464 3
136 279 c74 154 133 281 131 283 -2 2 -9 -10 -16 -27 -15 -37 -23 -37 -50 -2
-12 15 -51 58 -87 96 -54 58 -64 73 -59 95 3 14 -24 -32 -60 -102 -36 -71 -68
-126 -70 -124 -3 2 36 89 87 193 91 190 115 244 104 232 -3 -3 -27 17 -53 45
-26 28 -65 70 -87 94 l-41 43 -59 -121 c-33 -66 -64 -123 -68 -126 -5 -3 0 12
11 33 38 75 379 789 386 809 4 11 4 16 0 12 -4 -3 -15 3 -25 16 -40 47 -95
111 -124 142 -17 18 -29 38 -27 44 2 6 2 11 0 11 -2 0 -163 -321 -357 -712z
m120 -391 c-10 -9 -11 -8 -5 6 3 10 9 15 12 12 3 -3 0 -11 -7 -18z m112 -372
c-3 -9 -8 -14 -10 -11 -3 3 -2 9 2 15 9 16 15 13 8 -4z"/>
<path d="M1741 2090 c-18 -4 -52 -21 -75 -36 -37 -26 -54 -56 -176 -302 -75
-150 -133 -275 -130 -277 3 -1 46 -20 95 -40 50 -21 131 -54 180 -75 209 -88
239 -99 225 -87 -12 10 -14 30 -10 106 l5 94 -67 50 c-38 27 -68 51 -68 53 0
2 46 -26 103 -64 56 -38 107 -71 112 -74 7 -4 8 33 5 107 l-5 114 -40 43 c-22
24 44 -39 145 -139 102 -101 189 -183 195 -183 5 0 4 5 -3 12 -16 16 -17 182
-1 172 6 -4 -11 27 -38 67 -27 41 -93 144 -146 229 -53 85 -105 165 -117 177
-44 48 -123 70 -189 53z"/>
<path d="M4947 1875 c-15 -31 -27 -60 -27 -65 0 -6 22 -10 49 -10 47 0 50 2
88 53 62 82 62 77 -14 77 l-69 0 -27 -55z"/>
<path d="M3030 1855 l0 -55 55 0 55 0 0 55 0 55 -55 0 -55 0 0 -55z"/>
<path d="M2750 1810 l0 -80 -40 0 -40 0 0 -50 0 -50 40 0 40 0 0 -147 c0 -82
5 -165 11 -185 13 -48 49 -68 123 -68 80 0 86 4 86 62 l0 50 -29 -7 c-17 -3
-39 -1 -50 5 -20 10 -21 20 -21 150 l0 140 50 0 50 0 0 50 0 50 -50 0 -50 0 0
80 0 80 -60 0 -60 0 0 -80z"/>
<path d="M3823 1741 c-66 -17 -107 -58 -119 -119 l-6 -32 53 0 c50 1 56 3 74
33 19 30 25 32 82 35 52 2 66 -1 83 -18 23 -23 26 -62 5 -83 -9 -9 -46 -17
-97 -22 -153 -12 -198 -34 -219 -106 -30 -97 23 -191 115 -204 62 -10 148 9
185 41 36 30 41 30 41 -1 0 -24 3 -25 58 -25 l57 0 -5 204 c-6 226 -9 239 -78
279 -35 20 -177 32 -229 18z m197 -286 c0 -71 -55 -135 -123 -142 -52 -6 -84
8 -98 44 -22 59 24 101 116 104 17 1 41 5 55 9 42 13 50 11 50 -15z"/>
<path d="M4893 1741 c-51 -13 -83 -39 -104 -84 -28 -63 -26 -67 36 -67 50 0
56 2 69 29 18 34 33 41 95 41 62 0 91 -21 91 -66 0 -44 -14 -50 -143 -63 -149
-15 -190 -49 -189 -156 1 -106 50 -150 167 -149 58 0 79 5 119 27 27 15 50 27
51 27 2 0 5 -9 8 -20 4 -17 14 -20 59 -20 l53 0 -3 197 c-4 225 -11 252 -75
286 -42 22 -179 32 -234 18z m197 -293 c0 -103 -120 -175 -194 -117 -19 15
-26 30 -26 53 0 48 25 65 115 76 43 5 81 12 83 15 13 13 22 2 22 -27z"/>
<path d="M4405 1728 c-11 -6 -32 -22 -47 -36 l-28 -26 0 32 0 32 -55 0 -55 0
0 -340 0 -340 55 0 55 0 0 120 c0 73 4 120 10 120 6 0 10 -5 10 -10 0 -16 59
-48 103 -55 86 -15 169 35 211 125 30 65 30 218 -1 275 -26 48 -68 90 -106
104 -37 14 -126 14 -152 -1z m113 -123 c40 -34 55 -75 50 -138 -6 -70 -36
-113 -90 -129 -35 -10 -45 -10 -77 8 -45 24 -71 74 -71 137 0 119 108 190 188
122z"/>
<path d="M5485 1726 c-16 -7 -39 -23 -49 -35 -26 -29 -36 -26 -36 9 0 30 -1
30 -55 30 l-55 0 0 -245 0 -245 60 0 60 0 0 148 c0 174 11 207 73 231 34 13
42 12 72 -2 46 -22 55 -60 55 -234 l0 -143 56 0 55 0 -3 203 c-3 224 -7 238
-71 277 -38 23 -117 26 -162 6z"/>
<path d="M3030 1485 l0 -245 55 0 55 0 0 245 0 245 -55 0 -55 0 0 -245z"/>
<path d="M3225 1675 l0 -55 113 0 c61 0 112 -2 112 -5 0 -3 -15 -23 -34 -43
-19 -20 -73 -82 -120 -137 -82 -95 -86 -102 -86 -147 l0 -48 205 0 205 0 0 55
0 55 -120 0 c-66 0 -120 3 -120 6 0 3 54 68 120 145 115 133 120 141 120 184
l0 45 -197 0 -198 0 0 -55z"/>
<path d="M1065 1609 c-4 -6 -5 -12 -2 -15 2 -3 7 2 10 11 7 17 1 20 -8 4z"/>
<path d="M2900 990 c0 -60 -6 -70 -27 -49 -17 17 -82 13 -103 -6 -29 -26 -43
-80 -38 -146 7 -100 67 -152 131 -115 20 11 33 14 35 7 2 -6 19 -11 38 -11
l34 0 0 190 0 190 -35 0 -35 0 0 -60z m-16 -132 c21 -29 20 -77 -1 -100 -50
-56 -112 36 -67 100 19 28 49 28 68 0z"/>
<path d="M3618 1032 l-118 -3 0 -39 0 -39 65 -3 65 -3 -70 -102 c-55 -79 -70
-109 -70 -137 l0 -36 125 0 125 0 0 45 0 45 -60 0 c-33 0 -60 4 -60 9 0 5 27
49 61 98 52 78 60 95 57 129 l-3 39 -117 -3z"/>
<path d="M3101 947 c-47 -24 -65 -61 -65 -136 0 -81 18 -115 72 -138 39 -16
105 -11 133 10 15 11 39 49 39 61 0 14 -75 5 -92 -11 -18 -16 -22 -16 -46 -2
-15 8 -28 25 -30 37 -3 23 -2 23 85 21 l88 -2 -3 39 c-2 21 -11 54 -20 73 -25
53 -105 77 -161 48z m91 -64 c33 -29 22 -43 -32 -43 -54 0 -65 14 -34 44 20
21 43 20 66 -1z"/>
<path d="M3863 953 c-26 -5 -53 -39 -53 -65 0 -24 65 -26 74 -2 4 10 16 14 38
12 28 -2 33 -7 33 -28 0 -23 -4 -25 -63 -31 -39 -4 -70 -12 -80 -23 -22 -22
-23 -109 -1 -131 24 -25 82 -30 120 -11 21 11 35 13 37 6 2 -5 19 -10 39 -10
l35 0 -4 120 c-3 107 -5 122 -25 141 -22 23 -98 34 -150 22z m103 -180 c-12
-48 -60 -69 -86 -38 -19 23 -8 49 25 56 61 13 68 11 61 -18z"/>
<path d="M4235 948 c-11 -6 -28 -20 -37 -32 l-18 -21 0 28 c0 24 -4 27 -35 27
l-35 0 0 -140 0 -140 35 0 35 0 0 70 c0 63 3 74 26 96 18 19 31 24 50 20 23
-6 24 -5 24 49 0 58 -7 64 -45 43z"/>
<path d="M4389 949 c-24 -9 -49 -45 -49 -69 0 -16 66 -11 80 5 7 8 23 15 35
15 12 0 28 -7 35 -15 19 -23 -5 -45 -50 -45 -64 0 -98 -18 -109 -56 -26 -94
47 -153 134 -108 19 10 31 11 33 5 2 -6 20 -11 40 -11 l37 0 -5 117 c-3 65 -9
126 -14 135 -15 33 -108 48 -167 27z m111 -167 c0 -28 -29 -62 -54 -62 -52 0
-59 65 -8 73 55 8 62 7 62 -11z"/>
<path d="M4703 948 c-79 -21 -96 -183 -25 -238 27 -22 73 -24 115 -6 13 6 17
3 17 -14 0 -52 -50 -81 -80 -45 -14 16 -90 21 -90 5 0 -23 24 -59 47 -69 13
-6 48 -11 78 -11 43 0 60 5 82 24 l28 24 3 166 3 166 -34 0 c-20 0 -37 -6 -40
-12 -3 -10 -7 -10 -18 -2 -22 17 -51 21 -86 12z m89 -85 c22 -20 23 -61 1 -85
-33 -36 -83 -11 -83 42 0 52 45 76 82 43z"/>
<path d="M5003 944 c-68 -34 -81 -191 -19 -252 21 -21 35 -26 79 -26 66 -1
101 17 119 58 18 43 15 144 -5 182 -27 51 -110 69 -174 38z m97 -74 c13 -13
20 -33 20 -56 0 -51 -15 -74 -50 -74 -35 0 -50 23 -50 74 0 35 27 76 50 76 6
0 19 -9 30 -20z"/>
<path d="M5575 953 c-29 -8 -52 -31 -58 -59 -4 -22 -1 -24 33 -24 25 0 40 5
44 16 4 10 16 14 38 12 28 -2 33 -7 33 -28 0 -23 -4 -25 -64 -31 -50 -5 -69
-11 -83 -29 -27 -33 -24 -95 7 -125 28 -29 60 -31 113 -10 24 10 38 12 40 5 2
-5 20 -10 39 -10 32 0 35 2 29 23 -3 12 -6 65 -6 118 0 123 -11 141 -91 145
-30 1 -63 0 -74 -3z m95 -176 c0 -31 -32 -59 -62 -55 -18 2 -23 9 -23 33 0 25
5 31 30 36 50 11 55 10 55 -14z"/>
<path d="M5250 910 l0 -40 45 0 c25 0 45 -3 45 -7 0 -4 -20 -33 -45 -64 -34
-44 -45 -66 -45 -93 l0 -36 100 0 100 0 0 43 0 42 -45 -3 c-30 -3 -45 0 -45 8
0 6 20 36 45 67 34 41 45 63 45 89 l0 34 -100 0 -100 0 0 -40z"/>
<path d="M41 271 c-42 -42 -45 -138 -5 -182 19 -22 64 -25 82 -7 10 10 15 10
22 -2 7 -10 10 3 10 43 0 57 0 57 -30 57 -16 0 -30 -4 -30 -10 0 -5 6 -10 14
-10 22 0 28 -17 16 -40 -15 -27 -56 -26 -71 2 -38 71 22 183 63 118 15 -23 38
-27 38 -5 0 23 -37 55 -65 55 -14 0 -34 -9 -44 -19z"/>
<path d="M490 182 l0 -108 45 -2 c41 -1 47 1 55 24 16 40 12 90 -9 115 -17 21
-22 22 -40 12 -30 -18 -31 -17 -31 27 0 22 -4 40 -10 40 -6 0 -10 -43 -10
-108z m80 -3 c14 -25 3 -78 -16 -86 -33 -12 -56 44 -38 91 9 23 41 20 54 -5z"/>
<path d="M710 275 c0 -8 5 -15 10 -15 6 0 10 7 10 15 0 8 -4 15 -10 15 -5 0
-10 -7 -10 -15z"/>
<path d="M1810 178 c0 -80 3 -108 13 -108 8 0 11 16 9 55 -7 109 13 110 38 3
7 -32 18 -58 25 -58 6 0 17 24 24 53 20 83 22 88 32 82 5 -4 9 -35 9 -71 0
-36 4 -64 10 -64 6 0 10 43 10 108 0 106 -1 109 -22 107 -18 -1 -24 -12 -35
-61 -24 -107 -27 -107 -52 -8 -14 57 -20 68 -39 69 -21 2 -22 -1 -22 -107z"/>
<path d="M2530 275 c0 -8 5 -15 10 -15 6 0 10 7 10 15 0 8 -4 15 -10 15 -5 0
-10 -7 -10 -15z"/>
<path d="M2880 275 c0 -8 5 -15 10 -15 6 0 10 7 10 15 0 8 -4 15 -10 15 -5 0
-10 -7 -10 -15z"/>
<path d="M3442 178 c2 -78 7 -113 16 -116 9 -3 12 24 12 112 0 98 -2 116 -15
116 -13 0 -15 -17 -13 -112z"/>
<path d="M4023 268 c-18 -23 -22 -58 -7 -58 8 0 14 6 14 14 0 7 6 19 14 25 11
9 18 8 30 -4 23 -24 20 -40 -15 -72 -30 -28 -59 -73 -59 -93 0 -6 23 -10 55
-10 42 0 55 3 55 15 0 10 -11 15 -35 15 -19 0 -35 3 -35 6 0 4 16 24 35 45 36
40 44 74 25 110 -12 22 -62 26 -77 7z"/>
<path d="M4222 255 c-17 -38 -15 -136 4 -163 17 -25 56 -29 74 -7 18 22 24
135 8 165 -20 37 -70 40 -86 5z m69 -34 c13 -45 5 -103 -17 -122 -24 -20 -44
14 -44 74 0 88 40 119 61 48z"/>
<path d="M4431 261 c-14 -25 -14 -61 -1 -61 6 0 10 6 10 14 0 8 7 22 16 31 12
12 19 13 30 4 24 -20 15 -54 -25 -93 -22 -21 -41 -49 -44 -62 -4 -23 -2 -24
54 -24 46 0 59 3 59 15 0 11 -11 15 -40 15 -48 0 -50 10 -10 43 41 35 54 71
38 105 -17 35 -71 43 -87 13z"/>
<path d="M4646 271 c-3 -4 -10 -20 -15 -35 -9 -21 -8 -26 4 -26 8 0 15 6 15
14 0 7 7 19 15 26 12 10 18 10 30 0 24 -20 17 -50 -19 -84 -33 -31 -56 -65
-56 -85 0 -7 23 -11 55 -11 42 0 55 3 55 15 0 10 -11 15 -35 15 -19 0 -35 4
-35 8 0 4 16 23 35 42 27 26 35 42 35 70 0 20 -5 41 -12 48 -14 14 -64 16 -72
3z"/>
<path d="M5026 271 c-3 -4 -10 -20 -15 -35 -9 -21 -8 -26 4 -26 8 0 15 6 15
14 0 7 7 20 16 27 14 11 18 10 30 -6 21 -29 17 -44 -20 -79 -33 -31 -56 -65
-56 -85 0 -7 23 -11 55 -11 42 0 55 3 55 15 0 10 -11 15 -35 15 -19 0 -35 4
-35 8 0 4 16 23 35 42 27 26 35 42 35 70 0 20 -5 41 -12 48 -14 14 -64 16 -72
3z"/>
<path d="M5226 258 c-19 -27 -21 -122 -3 -158 9 -18 21 -25 42 -25 21 0 33 7
42 25 16 32 16 118 0 150 -17 34 -60 39 -81 8z m64 -24 c21 -54 4 -144 -27
-144 -7 0 -18 12 -23 26 -21 54 -5 144 25 144 9 0 20 -12 25 -26z"/>
<path d="M5432 255 c-15 -32 -15 -55 -2 -55 6 0 10 6 10 14 0 8 7 22 16 31 12
12 19 13 30 4 24 -20 16 -50 -26 -95 -22 -24 -40 -53 -40 -64 0 -18 6 -20 55
-20 41 0 55 4 55 14 0 10 -14 16 -42 18 l-43 3 37 38 c21 20 41 49 44 62 15
62 -69 106 -94 50z"/>
<path d="M5655 217 c-45 -82 -45 -97 0 -97 31 0 35 -3 35 -25 0 -14 5 -25 10
-25 6 0 10 11 10 25 0 16 6 25 15 25 8 0 15 7 15 15 0 8 -7 15 -15 15 -12 0
-15 14 -15 65 0 36 -4 65 -10 65 -5 0 -25 -29 -45 -63z m32 -64 c-3 -2 -15 -3
-26 -1 l-21 3 22 35 23 35 3 -33 c2 -19 1 -36 -1 -39z"/>
<path d="M289 211 c-19 -15 -24 -29 -24 -64 0 -53 17 -77 56 -77 49 0 76 69
48 123 -22 42 -45 47 -80 18z m59 -57 c2 -27 -2 -45 -13 -54 -23 -19 -45 5
-45 50 0 43 7 52 35 48 16 -2 21 -12 23 -44z"/>
<path d="M860 210 c-27 -27 -28 -100 -2 -123 25 -23 55 -21 77 3 20 23 6 27
-26 8 -17 -11 -22 -10 -35 6 -22 31 -17 36 32 36 l47 0 -7 33 c-11 55 -51 72
-86 37z m58 -33 c3 -13 -3 -17 -27 -17 -33 0 -39 8 -19 28 17 17 42 11 46 -11z"/>
<path d="M1106 222 c-4 -7 -17 -10 -29 -7 -21 6 -22 4 -19 -70 4 -83 22 -104
22 -25 0 37 5 54 21 69 12 11 19 25 17 32 -3 10 -6 10 -12 1z"/>
<path d="M1275 220 c-4 -6 -15 -8 -26 -5 -18 6 -19 1 -19 -69 0 -44 4 -76 10
-76 6 0 10 22 10 49 0 62 7 81 30 81 23 0 30 -19 30 -81 0 -27 5 -49 10 -49
14 0 13 133 -2 148 -15 15 -35 15 -43 2z"/>
<path d="M1474 222 c-57 -37 -38 -152 25 -152 38 0 54 22 55 76 1 37 -4 50
-23 65 -25 20 -39 23 -57 11z m50 -38 c18 -47 -5 -103 -38 -91 -19 8 -30 61
-16 86 13 25 45 28 54 5z"/>
<path d="M2355 220 c-4 -6 -15 -8 -26 -5 -18 6 -19 1 -19 -69 0 -60 3 -76 15
-76 10 0 15 16 17 63 3 54 5 62 23 62 18 0 20 -8 23 -62 2 -49 6 -63 19 -63
13 0 15 12 11 71 -2 47 -8 73 -18 79 -20 13 -37 12 -45 0z"/>
<path d="M2694 222 c-34 -22 -44 -93 -18 -130 20 -29 69 -30 84 -1 15 28 5 36
-18 16 -10 -10 -24 -17 -30 -17 -14 0 -25 38 -20 76 3 33 36 46 50 20 11 -20
28 -21 28 -2 0 15 -37 46 -55 46 -5 0 -15 -4 -21 -8z"/>
<path d="M3056 221 c-3 -5 -15 -7 -26 -4 -19 5 -20 0 -20 -96 0 -83 3 -101 15
-101 10 0 15 10 15 30 0 27 2 30 25 24 14 -4 32 -1 40 6 18 15 29 71 20 99
-12 40 -55 66 -69 42z m42 -67 c2 -27 -2 -45 -13 -54 -23 -19 -45 5 -45 50 0
43 7 52 35 48 16 -2 21 -12 23 -44z"/>
<path d="M3252 214 c-12 -8 -22 -19 -22 -25 0 -15 22 -10 35 8 15 20 48 10 43
-14 -2 -9 -19 -22 -38 -28 -31 -10 -35 -16 -35 -46 0 -34 0 -34 50 -35 l50 -2
-3 67 c-5 90 -28 112 -80 75z m56 -91 c-2 -22 -8 -28 -28 -28 -33 0 -39 32 -8
44 36 15 40 13 36 -16z"/>
<path d="M710 145 c0 -43 4 -75 10 -75 6 0 10 32 10 75 0 43 -4 75 -10 75 -6
0 -10 -32 -10 -75z"/>
<path d="M2100 148 l5 -73 48 -1 47 -1 0 74 c0 42 -4 73 -10 73 -5 0 -10 -22
-10 -48 0 -60 -20 -93 -44 -73 -11 9 -16 30 -16 67 0 37 -4 54 -12 54 -10 0
-12 -18 -8 -72z"/>
<path d="M2530 145 c0 -43 4 -75 10 -75 6 0 10 32 10 75 0 43 -4 75 -10 75 -6
0 -10 -32 -10 -75z"/>
<path d="M2880 145 c0 -43 4 -75 10 -75 6 0 10 32 10 75 0 43 -4 75 -10 75 -6
0 -10 -32 -10 -75z"/>
<path d="M3728 168 c-7 -18 2 -39 13 -32 12 7 12 44 0 44 -5 0 -11 -6 -13 -12z"/>
<path d="M4830 155 c0 -10 11 -15 35 -15 24 0 35 5 35 15 0 10 -11 15 -35 15
-24 0 -35 -5 -35 -15z"/>
</g>
</svg>
